<svg id="Layer_1" data-name="Layer 1" xmlns="http://www.w3.org/2000/svg" xmlns:xlink="http://www.w3.org/1999/xlink" viewBox="0 0 1000 1000"><defs><style>.cls-1{fill:#dae2f3;}.cls-2{fill:#f2f5f9;}.cls-3{fill:none;stroke:#736acc;stroke-miterlimit:10;stroke-width:2.16px;}.cls-4{fill:#2e5990;}.cls-5{fill:#214c7a;}.cls-6{fill:#f9ac85;}.cls-7{fill:#ffba92;}.cls-8{fill:#2d2826;}.cls-9{fill:#736acc;}.cls-10{fill:#b2ace5;}.cls-11{fill:#3d5360;}.cls-12{fill:#dd8968;}.cls-13{fill:#fcc956;}.cls-14{fill:url(#New_Gradient_Swatch_1);}.cls-15{fill:url(#linear-gradient);}</style><linearGradient id="New_Gradient_Swatch_1" x1="147.18" y1="649.47" x2="882.41" y2="649.47" gradientUnits="userSpaceOnUse"><stop offset="0" stop-color="#1d2a33"/><stop offset="1" stop-color="#353b40"/></linearGradient><linearGradient id="linear-gradient" x1="185.34" y1="773.88" x2="844.24" y2="773.88" gradientUnits="userSpaceOnUse"><stop offset="0" stop-color="#1e1d13"/><stop offset="1" stop-color="#353b40"/></linearGradient></defs><title>illustrations</title><g id="bg"><path class="cls-1" d="M215.31,883.56c-56.23,2.21-104.66-41.73-140.3-85.27s-53.29-99.88-57-156C13.5,572.5,34.73,494.47,94.4,458,114.16,446,137.66,439.21,160.65,442c34.2,4.12,64.51,28.51,99,27.65,12.24-.31,25.12-4.44,32.56-14.16,6-7.85,7.66-18.22,7.58-28.1-.21-28.3-12.73-54.8-22.18-81.47-17-48-23.66-103.92,2.3-147.66,20-33.78,56.63-54.82,94.3-66C439.85,112.81,513,120,573.65,152s108,88.21,129.06,153.39c9,27.89,13.61,57.66,28.35,83a116.88,116.88,0,0,0,55.8,48.78c16.48,6.83,34.47,9.83,50.33,18s30,23.69,28.77,41.48c-1.15,16.48-14.84,33.75-6,47.71C864.21,551,872.34,554,879.69,557c63.49,26.22,106.66,95.09,102.58,163.66S926.12,846,863.66,874.55c-22.93,10.5-25.57,7-57.06,6.62-191.72-2.12-399.57,4.5-591.29,2.39"/><path class="cls-1" d="M215.31,881.94c-49,1.57-90.44-30.94-122.06-65.11C76.39,798.61,61.34,779.05,50,756.91a276.36,276.36,0,0,1-24.43-70.74c-9-44.16-9.28-90.93,3.6-134.37,12.24-41.29,37.82-79.91,77.76-98.65a99.67,99.67,0,0,1,74.64-4.68c22.43,7.27,43.52,19.48,67.24,22.26,20.59,2.42,43.86-3.9,50.42-25.85,7.11-23.78-2.21-51-10.36-73.26-8.69-23.71-17.6-47-21.79-72-4.08-24.35-4.3-49.8,2.63-73.66,13.87-47.73,56.54-77.11,102.06-91.23,48.32-15,101-15.24,149.64-1.7a262.41,262.41,0,0,1,121.17,73.83,269.65,269.65,0,0,1,40.19,55.94c11.41,21.16,19,43.51,25.25,66.65,6.44,23.83,12.87,48.23,27.41,68.61a118.78,118.78,0,0,0,51,40.66c23.29,9.63,51.47,12,68.65,32.47,8.16,9.72,11,21.22,7.8,33.52-2.65,10.06-8.27,20.19-7.42,30.87.8,10.11,8.15,16.17,16.84,20.09,9.51,4.29,18.94,8.14,27.88,13.58a167.36,167.36,0,0,1,48.45,45.19c25.73,35.77,38.17,81.7,29.59,125.34-8.45,43-35.9,80-70.22,106.28-16.75,12.85-36,24.79-56.1,31.58A58.88,58.88,0,0,1,831,880.34c-11.09-.3-22.15-.78-33.25-.88-55-.53-110-.37-165,0-112.85.87-225.69,2.89-338.54,2.85q-39.47,0-78.92-.42c-2.09,0-2.09,3.22,0,3.24,114.57,1.25,229.16-.5,343.73-1.73,57.41-.61,114.84-1.12,172.26-1.08,27.86,0,55.78-.25,83.63.59,8.6.26,17.38,1.25,26,.4,7.38-.74,14.28-3.29,21-6.26,39.7-17.46,75.67-46.42,98.45-83.59A157.57,157.57,0,0,0,978.64,670.1c-11.07-41.62-38-79.1-74.43-102.19-9.22-5.84-19-10.18-29-14.49-5.46-2.36-11.14-5.22-14.25-10.55-3.43-5.88-2.53-12.7-.83-19,2.82-10.36,8.12-20.48,7.42-31.49-.65-10.24-6-19.52-13.1-26.7-18.32-18.52-45.3-20.75-68.2-30.57a115.42,115.42,0,0,1-53.83-47.61c-13.49-23.17-18.38-49.92-25.93-75.32A270.1,270.1,0,0,0,582.24,154.84c-43.74-25-94.72-36.88-145-34.67-46.78,2-96.66,15.59-132.78,46.65A121.68,121.68,0,0,0,267,223.58c-7,23-7.31,47.6-3.94,71.29,3.67,25.85,12.39,50,21.44,74.33,4.62,12.44,9,25.05,11.54,38.11,2.58,13.37,4.15,29.41-2,42.09-12.09,24.79-46.09,19.91-67.33,12.8-23-7.69-44.75-20.17-69.31-22.17-45.94-3.74-87.85,26.93-111,64.49-22.37,36.33-31,80.33-30.51,122.59C16.4,675.7,28,725.4,52.16,767.78c12.08,21.19,27.75,40.1,44.69,57.56,16.36,16.86,34.58,32.4,55.28,43.68,19.43,10.57,40.94,16.87,63.18,16.16,2.08-.07,2.09-3.31,0-3.24Z"/></g><g id="bulb"><path class="cls-2" d="M498.39,226a10.47,10.47,0,0,1-3.34-7.88v-.06c0-10.25-7.77-18.56-17.35-18.56s-17.35,8.31-17.35,18.56c0,.34,0,.68,0,1a7.69,7.69,0,0,1-2.7,6.34,31,31,0,1,0,40.72.58Z"/><line class="cls-3" x1="477.7" y1="199.52" x2="477.7" y2="69.64"/></g><g id="human"><path class="cls-4" d="M631,453.62s-32.55,7.28-37.43,13.79l-43.41,78.13,60.77,9.23,26.47-98.09Z"/><path class="cls-5" d="M623.12,487.85S604.31,544,575.1,550l39.77,6Z"/><path class="cls-4" d="M735.47,542.18l2.9,48.39s57.1,4.84,68.23-6.77c0,0-19.35-71.28-40.65-93.23,0,0-38.71-35.5-119-36.95L633.36,458l-74,217.76h226L777.57,594"/><path class="cls-5" d="M735.27,551.18s-5.33,54.14-21.33,68l45.39,2.73-4.57-30.43Z"/><polygon class="cls-6" points="555.75 546.39 526.1 657.78 580.2 657.78 600.96 553.26 555.75 546.39"/><path class="cls-7" d="M767.1,600.35s-14.56-6-109,19.4c0,0-37.31-22.76-59.33,9.33l-1.49,5.65s211.58,2.94,214.19-3c0,0-1.25-35.08-8.46-47.4l-48.28,7.13,0,8.51"/><ellipse class="cls-7" cx="514.95" cy="643.98" rx="34.28" ry="36.51"/><ellipse class="cls-7" cx="694.66" cy="397.37" rx="88.92" ry="93.2"/><path class="cls-8" d="M741.91,346.81s14.81,16.66,12,28.69l9.25-17.12s19.37,39.37,13.62,74.74c0,0,41.43-56.85,20.15-128.94,0,0-8.32-10.57,2.78-15.19,0,0-17.12-6.48-19-2.78,0,0-104.08-92.52-186,40.71,0,0-16.65,27.3-19.89,55.05,0,0,39.32,15.73,83.27-8.79a26.73,26.73,0,0,1-10.64,21.74S708.14,388.45,741.91,346.81Z"/></g><g id="pc"><rect class="cls-9" x="242.86" y="385.82" width="327.87" height="194.32" rx="15"/><rect class="cls-10" x="242.86" y="385.82" width="316.86" height="194.32" rx="15"/><rect class="cls-9" x="365.56" y="580.14" width="86.88" height="43.17"/><rect class="cls-10" x="365.56" y="580.14" width="80.24" height="43.17"/><rect class="cls-11" x="348.83" y="615.87" width="116.38" height="18.86"/></g><g id="noodles"><path class="cls-12" d="M223.35,594.71l-1.19.45L174.31,478a1.29,1.29,0,0,1,.74-1.7l4.07-1.56a1.31,1.31,0,0,1,1.69.77Z"/><path class="cls-12" d="M222.21,589.57l-1.23.3L187.74,467.75a1.3,1.3,0,0,1,.93-1.6l4.24-1a1.29,1.29,0,0,1,1.58,1Z"/><path class="cls-13" d="M258.75,634.73H204.61a3.48,3.48,0,0,1-3.44-2.94L185.64,530.34a1.67,1.67,0,0,1,1.66-1.93h88.89a1.67,1.67,0,0,1,1.65,1.93L262.18,631.79A3.47,3.47,0,0,1,258.75,634.73Z"/></g><g id="table"><rect class="cls-14" x="147.18" y="634.73" width="735.23" height="29.47"/><rect class="cls-15" x="185.34" y="664.2" width="658.9" height="219.36"/></g></svg>