<svg id="Layer_1" data-name="Layer 1" xmlns="http://www.w3.org/2000/svg" viewBox="0 0 750 100"><defs><style>.cls-1{fill:#4d5bdb;}</style></defs><title>Logo Noodlesjs</title><path class="cls-1" d="M71.41,11.77H88.68V89.11H71.41L34.57,40.65V89.11H17.31V11.77H33.46L71.41,61.56Z"/><path class="cls-1" d="M172.77,78.44Q161,89.89,143.89,89.89T115,78.44Q103.28,67,103.28,50T115,21.45Q126.74,10,143.89,10t28.88,11.45Q184.5,32.91,184.5,50T172.77,78.44ZM166.9,50a25.29,25.29,0,0,0-6.64-17.65,21.89,21.89,0,0,0-32.64,0A25.34,25.34,0,0,0,121,50a25.12,25.12,0,0,0,6.64,17.59,22,22,0,0,0,32.64,0A25.08,25.08,0,0,0,166.9,50Z"/><path class="cls-1" d="M264.17,78.44q-11.73,11.44-28.88,11.45T206.41,78.44Q194.68,67,194.68,50t11.73-28.5Q218.13,10,235.29,10t28.88,11.45Q275.89,32.91,275.9,50T264.17,78.44ZM258.3,50a25.29,25.29,0,0,0-6.64-17.65,21.89,21.89,0,0,0-32.64,0A25.29,25.29,0,0,0,212.38,50,25.08,25.08,0,0,0,219,67.59a22,22,0,0,0,32.64,0A25.08,25.08,0,0,0,258.3,50Z"/><path class="cls-1" d="M349.59,21.89Q360.65,32,360.65,50.05T349.86,78.6Q339.08,89.12,317,89.11H290.5V11.77h27.33Q338.52,11.77,349.59,21.89Zm-12.67,46q6.36-6,6.36-17.37T336.92,33q-6.37-6.13-19.53-6.14h-9.63v47h10.95Q330.56,73.85,336.92,67.87Z"/><path class="cls-1" d="M375.59,89.11V11.77h17.26v62h33V89.11Z"/><polygon class="cls-1" points="494.21 11.77 494.21 27.15 455.7 27.15 455.7 43.08 490.33 43.08 490.33 57.8 455.7 57.8 455.7 73.84 495.42 73.84 495.42 89.11 438.44 89.11 438.44 11.77 494.21 11.77"/><path class="cls-1" d="M528.89,27.21a6.66,6.66,0,0,0-2.49,5.42A6.11,6.11,0,0,0,529.45,38q3,2,14,4.71t17.1,8.13q6.07,5.41,6.08,15.82a20.9,20.9,0,0,1-7.8,16.88Q551.08,90,538.35,90,520,90,505.27,76.39l10.29-12.61q12.51,10.95,23.13,11a12.12,12.12,0,0,0,7.47-2,6.57,6.57,0,0,0,2.71-5.53A6.44,6.44,0,0,0,546,61.62q-2.88-2.05-11.4-4.15-13.5-3.21-19.75-8.35T508.59,33q0-11,7.91-17t19.75-6a47.77,47.77,0,0,1,15.49,2.65,41.47,41.47,0,0,1,13.5,7.53L556.5,32.79q-10.07-7.63-20.8-7.63A10.38,10.38,0,0,0,528.89,27.21Z"/><path class="cls-1" d="M582.93,87.18A9.89,9.89,0,1,1,589.84,90,9.41,9.41,0,0,1,582.93,87.18Z"/><path class="cls-1" d="M618.17,26.6V11.77h40.28V62.23q0,13.83-7.14,20.69T633,89.78q-13.95,0-24.35-10.73l9-12.4q7,7.53,14.6,7.53a8.22,8.22,0,0,0,6.26-2.82c1.73-1.88,2.59-4.71,2.59-8.47V26.6Z"/><path class="cls-1" d="M694.91,27.21a6.66,6.66,0,0,0-2.49,5.42,6.1,6.1,0,0,0,3,5.36q3,2,14,4.71t17.1,8.13q6.07,5.41,6.08,15.82a20.9,20.9,0,0,1-7.8,16.88Q717.09,90,704.37,90,686,90,671.28,76.39l10.29-12.61q12.51,10.95,23.13,11a12.12,12.12,0,0,0,7.47-2,6.54,6.54,0,0,0,2.71-5.53A6.44,6.44,0,0,0,712,61.62q-2.88-2.05-11.39-4.15-13.51-3.21-19.76-8.35T674.6,33q0-11,7.91-17t19.75-6a47.83,47.83,0,0,1,15.5,2.65,41.68,41.68,0,0,1,13.5,7.53l-8.75,12.61q-10.07-7.63-20.8-7.63A10.35,10.35,0,0,0,694.91,27.21Z"/></svg>