<svg id="Layer_1" data-name="Layer 1" xmlns="http://www.w3.org/2000/svg" viewBox="0 0 150 150"><defs><style>.cls-1{fill:#4d5bdb;}.cls-2{fill:#fff;}</style></defs><title>top</title><circle class="cls-1" cx="75" cy="75" r="75"/><path class="cls-2" d="M126,89,78,53a5.33,5.33,0,0,0-.51-.31l-.06,0a4.26,4.26,0,0,0-.75-.35l-.18-.06a5.48,5.48,0,0,0-.67-.17l-.34,0L75,52l-.52,0-.33,0a5.2,5.2,0,0,0-.68.17l-.18.06a4.26,4.26,0,0,0-.75.35l-.06,0A5.33,5.33,0,0,0,72,53L24,89a5,5,0,0,0,6,8L75,63.2,120,97a5,5,0,0,0,6-8Z"/></svg>