<?xml version="1.0" encoding="utf-8"?>
<!-- Generator: Adobe Illustrator 24.0.0, SVG Export Plug-In . SVG Version: 6.00 Build 0)  -->
<svg version="1.1" id="Layer_1" xmlns="http://www.w3.org/2000/svg" xmlns:xlink="http://www.w3.org/1999/xlink" x="0px" y="0px"
	 viewBox="0 0 150 150" style="enable-background:new 0 0 150 150;" xml:space="preserve">
<style type="text/css">
	.st0{opacity:0.45;fill:#4D5BDB;enable-background:new    ;}
	.st1{opacity:0.75;fill:#FFFFFF;enable-background:new    ;}
</style>
<title>top</title>
<circle class="st0" cx="75" cy="75" r="75"/>
<path class="st1" d="M126,89L78,53c-0.2-0.1-0.3-0.2-0.5-0.3h-0.1c-0.2-0.1-0.5-0.3-0.8-0.3l-0.2-0.1c-0.2-0.1-0.4-0.1-0.7-0.2h-0.3
	L75,52h-0.5h-0.3c-0.2,0-0.5,0.1-0.7,0.2l-0.2,0.1c-0.3,0.1-0.5,0.2-0.8,0.3h-0.1c-0.2,0.1-0.3,0.3-0.5,0.4L24,89
	c-2.2,1.7-2.7,4.8-1,7s4.8,2.7,7,1l45-33.8L120,97c2.2,1.7,5.3,1.2,7-1C128.7,93.8,128.2,90.7,126,89z"/>
</svg>
